<svg viewBox="0 0 49 49" xmlns="http://www.w3.org/2000/svg" role="img" aria-label="DraBornGarage APK QR kodu"><rect width="49" height="49" rx="3" fill="#fff"/><path d="M2 2h7v1H2zM10 2h1v1H10zM16 2h1v1H16zM21 2h1v1H21zM24 2h2v1H24zM27 2h1v1H27zM30 2h1v1H30zM32 2h1v1H32zM34 2h1v1H34zM38 2h1v1H38zM40 2h7v1H40zM2 3h1v1H2zM8 3h1v1H8zM10 3h5v1H10zM16 3h1v1H16zM18 3h1v1H18zM20 3h1v1H20zM23 3h2v1H23zM27 3h1v1H27zM29 3h4v1H29zM34 3h2v1H34zM37 3h1v1H37zM40 3h1v1H40zM46 3h1v1H46zM2 4h1v1H2zM4 4h3v1H4zM8 4h1v1H8zM12 4h1v1H12zM14 4h1v1H14zM16 4h1v1H16zM18 4h2v1H18zM22 4h5v1H22zM28 4h1v1H28zM31 4h1v1H31zM33 4h2v1H33zM37 4h1v1H37zM40 4h1v1H40zM42 4h3v1H42zM46 4h1v1H46zM2 5h1v1H2zM4 5h3v1H4zM8 5h1v1H8zM10 5h1v1H10zM13 5h1v1H13zM15 5h1v1H15zM19 5h2v1H19zM22 5h4v1H22zM28 5h1v1H28zM31 5h3v1H31zM37 5h2v1H37zM40 5h1v1H40zM42 5h3v1H42zM46 5h1v1H46zM2 6h1v1H2zM4 6h3v1H4zM8 6h1v1H8zM11 6h2v1H11zM16 6h1v1H16zM18 6h1v1H18zM20 6h8v1H20zM29 6h1v1H29zM31 6h1v1H31zM35 6h4v1H35zM40 6h1v1H40zM42 6h3v1H42zM46 6h1v1H46zM2 7h1v1H2zM8 7h1v1H8zM12 7h2v1H12zM15 7h1v1H15zM21 7h2v1H21zM26 7h2v1H26zM29 7h2v1H29zM32 7h1v1H32zM34 7h2v1H34zM40 7h1v1H40zM46 7h1v1H46zM2 8h7v1H2zM10 8h1v1H10zM12 8h1v1H12zM14 8h1v1H14zM16 8h1v1H16zM18 8h1v1H18zM20 8h1v1H20zM22 8h1v1H22zM24 8h1v1H24zM26 8h1v1H26zM28 8h1v1H28zM30 8h1v1H30zM32 8h1v1H32zM34 8h1v1H34zM36 8h1v1H36zM38 8h1v1H38zM40 8h7v1H40zM10 9h2v1H10zM13 9h1v1H13zM15 9h1v1H15zM17 9h2v1H17zM21 9h2v1H21zM26 9h3v1H26zM32 9h1v1H32zM35 9h1v1H35zM37 9h1v1H37zM2 10h1v1H2zM4 10h2v1H4zM7 10h3v1H7zM11 10h5v1H11zM17 10h2v1H17zM21 10h7v1H21zM29 10h5v1H29zM35 10h1v1H35zM37 10h2v1H37zM40 10h1v1H40zM43 10h1v1H43zM45 10h2v1H45zM4 11h4v1H4zM9 11h1v1H9zM14 11h1v1H14zM17 11h1v1H17zM19 11h2v1H19zM23 11h1v1H23zM26 11h2v1H26zM30 11h5v1H30zM37 11h2v1H37zM42 11h2v1H42zM45 11h2v1H45zM6 12h1v1H6zM8 12h4v1H8zM15 12h2v1H15zM18 12h1v1H18zM22 12h1v1H22zM24 12h1v1H24zM26 12h2v1H26zM29 12h3v1H29zM34 12h1v1H34zM36 12h1v1H36zM39 12h1v1H39zM44 12h3v1H44zM2 13h1v1H2zM4 13h1v1H4zM6 13h1v1H6zM11 13h1v1H11zM14 13h1v1H14zM18 13h3v1H18zM22 13h3v1H22zM26 13h2v1H26zM29 13h2v1H29zM33 13h4v1H33zM39 13h1v1H39zM43 13h1v1H43zM45 13h1v1H45zM3 14h2v1H3zM8 14h6v1H8zM15 14h1v1H15zM17 14h1v1H17zM19 14h2v1H19zM22 14h4v1H22zM27 14h1v1H27zM29 14h1v1H29zM31 14h3v1H31zM36 14h1v1H36zM38 14h1v1H38zM40 14h1v1H40zM44 14h1v1H44zM46 14h1v1H46zM4 15h1v1H4zM6 15h1v1H6zM9 15h1v1H9zM11 15h1v1H11zM14 15h3v1H14zM19 15h3v1H19zM26 15h4v1H26zM33 15h1v1H33zM35 15h1v1H35zM39 15h2v1H39zM42 15h1v1H42zM45 15h1v1H45zM2 16h2v1H2zM5 16h1v1H5zM8 16h3v1H8zM16 16h2v1H16zM19 16h7v1H19zM28 16h1v1H28zM30 16h3v1H30zM38 16h3v1H38zM42 16h1v1H42zM45 16h1v1H45zM2 17h2v1H2zM6 17h2v1H6zM9 17h1v1H9zM13 17h1v1H13zM16 17h2v1H16zM20 17h1v1H20zM23 17h1v1H23zM25 17h2v1H25zM29 17h3v1H29zM34 17h2v1H34zM37 17h1v1H37zM39 17h4v1H39zM44 17h1v1H44zM46 17h1v1H46zM4 18h2v1H4zM8 18h1v1H8zM12 18h1v1H12zM15 18h4v1H15zM21 18h3v1H21zM25 18h1v1H25zM29 18h1v1H29zM31 18h4v1H31zM37 18h2v1H37zM43 18h3v1H43zM4 19h2v1H4zM9 19h3v1H9zM13 19h6v1H13zM20 19h1v1H20zM24 19h1v1H24zM26 19h1v1H26zM31 19h1v1H31zM35 19h3v1H35zM39 19h1v1H39zM41 19h2v1H41zM45 19h2v1H45zM3 20h6v1H3zM11 20h2v1H11zM14 20h2v1H14zM19 20h2v1H19zM22 20h3v1H22zM26 20h1v1H26zM28 20h2v1H28zM33 20h1v1H33zM35 20h3v1H35zM39 20h3v1H39zM44 20h2v1H44zM2 21h4v1H2zM7 21h1v1H7zM11 21h2v1H11zM15 21h1v1H15zM17 21h1v1H17zM19 21h5v1H19zM26 21h1v1H26zM28 21h1v1H28zM30 21h1v1H30zM32 21h1v1H32zM35 21h1v1H35zM38 21h2v1H38zM43 21h1v1H43zM45 21h2v1H45zM5 22h8v1H5zM14 22h1v1H14zM16 22h1v1H16zM22 22h5v1H22zM29 22h5v1H29zM36 22h1v1H36zM38 22h5v1H38zM44 22h2v1H44zM2 23h2v1H2zM6 23h1v1H6zM10 23h1v1H10zM13 23h1v1H13zM18 23h2v1H18zM21 23h2v1H21zM26 23h1v1H26zM29 23h1v1H29zM31 23h2v1H31zM34 23h1v1H34zM37 23h2v1H37zM42 23h3v1H42zM46 23h1v1H46zM3 24h2v1H3zM6 24h1v1H6zM8 24h1v1H8zM10 24h1v1H10zM13 24h2v1H13zM17 24h1v1H17zM20 24h3v1H20zM24 24h1v1H24zM26 24h5v1H26zM32 24h2v1H32zM36 24h1v1H36zM38 24h1v1H38zM40 24h1v1H40zM42 24h2v1H42zM46 24h1v1H46zM3 25h1v1H3zM5 25h2v1H5zM10 25h1v1H10zM13 25h2v1H13zM20 25h3v1H20zM26 25h2v1H26zM31 25h1v1H31zM33 25h2v1H33zM38 25h1v1H38zM42 25h2v1H42zM2 26h1v1H2zM6 26h6v1H6zM13 26h1v1H13zM16 26h1v1H16zM19 26h1v1H19zM22 26h5v1H22zM28 26h2v1H28zM32 26h2v1H32zM37 26h7v1H37zM45 26h1v1H45zM2 27h1v1H2zM4 27h1v1H4zM6 27h2v1H6zM10 27h4v1H10zM15 27h2v1H15zM19 27h1v1H19zM21 27h1v1H21zM24 27h2v1H24zM27 27h3v1H27zM35 27h1v1H35zM37 27h3v1H37zM41 27h1v1H41zM2 28h7v1H2zM12 28h3v1H12zM17 28h1v1H17zM20 28h5v1H20zM26 28h4v1H26zM31 28h3v1H31zM35 28h1v1H35zM41 28h2v1H41zM3 29h1v1H3zM11 29h2v1H11zM15 29h3v1H15zM22 29h2v1H22zM25 29h2v1H25zM29 29h1v1H29zM32 29h1v1H32zM34 29h2v1H34zM37 29h1v1H37zM40 29h2v1H40zM43 29h3v1H43zM5 30h1v1H5zM8 30h1v1H8zM10 30h1v1H10zM12 30h1v1H12zM14 30h1v1H14zM16 30h2v1H16zM19 30h1v1H19zM23 30h1v1H23zM25 30h3v1H25zM29 30h3v1H29zM33 30h3v1H33zM37 30h2v1H37zM41 30h2v1H41zM44 30h2v1H44zM3 31h1v1H3zM6 31h2v1H6zM13 31h4v1H13zM18 31h2v1H18zM21 31h1v1H21zM31 31h1v1H31zM35 31h2v1H35zM38 31h9v1H38zM3 32h1v1H3zM5 32h4v1H5zM10 32h1v1H10zM12 32h1v1H12zM15 32h4v1H15zM20 32h1v1H20zM22 32h2v1H22zM25 32h2v1H25zM28 32h1v1H28zM30 32h1v1H30zM36 32h3v1H36zM41 32h1v1H41zM43 32h1v1H43zM3 33h1v1H3zM6 33h1v1H6zM9 33h1v1H9zM12 33h1v1H12zM15 33h3v1H15zM19 33h1v1H19zM22 33h2v1H22zM25 33h1v1H25zM27 33h1v1H27zM31 33h1v1H31zM33 33h1v1H33zM36 33h1v1H36zM38 33h1v1H38zM45 33h2v1H45zM2 34h1v1H2zM6 34h3v1H6zM10 34h6v1H10zM17 34h1v1H17zM21 34h1v1H21zM23 34h3v1H23zM27 34h6v1H27zM35 34h1v1H35zM40 34h2v1H40zM43 34h3v1H43zM4 35h4v1H4zM10 35h4v1H10zM17 35h1v1H17zM20 35h5v1H20zM26 35h2v1H26zM31 35h2v1H31zM35 35h1v1H35zM37 35h4v1H37zM43 35h1v1H43zM46 35h1v1H46zM6 36h1v1H6zM8 36h4v1H8zM15 36h2v1H15zM19 36h2v1H19zM23 36h4v1H23zM28 36h1v1H28zM31 36h2v1H31zM36 36h2v1H36zM39 36h2v1H39zM45 36h2v1H45zM3 37h4v1H3zM10 37h1v1H10zM14 37h1v1H14zM16 37h1v1H16zM18 37h1v1H18zM22 37h1v1H22zM25 37h1v1H25zM28 37h1v1H28zM33 37h2v1H33zM37 37h1v1H37zM40 37h1v1H40zM42 37h2v1H42zM46 37h1v1H46zM2 38h1v1H2zM5 38h2v1H5zM8 38h1v1H8zM11 38h2v1H11zM14 38h2v1H14zM20 38h1v1H20zM22 38h5v1H22zM28 38h1v1H28zM33 38h1v1H33zM38 38h6v1H38zM45 38h2v1H45zM10 39h1v1H10zM12 39h2v1H12zM16 39h2v1H16zM19 39h4v1H19zM26 39h2v1H26zM29 39h1v1H29zM33 39h1v1H33zM35 39h1v1H35zM38 39h1v1H38zM42 39h1v1H42zM2 40h7v1H2zM10 40h2v1H10zM13 40h1v1H13zM16 40h1v1H16zM18 40h3v1H18zM22 40h1v1H22zM24 40h1v1H24zM26 40h2v1H26zM29 40h2v1H29zM32 40h1v1H32zM34 40h1v1H34zM37 40h2v1H37zM40 40h1v1H40zM42 40h1v1H42zM2 41h1v1H2zM8 41h1v1H8zM10 41h2v1H10zM13 41h1v1H13zM15 41h2v1H15zM20 41h3v1H20zM26 41h1v1H26zM29 41h2v1H29zM32 41h3v1H32zM37 41h2v1H37zM42 41h3v1H42zM2 42h1v1H2zM4 42h3v1H4zM8 42h1v1H8zM11 42h1v1H11zM14 42h1v1H14zM16 42h1v1H16zM18 42h2v1H18zM22 42h8v1H22zM31 42h4v1H31zM38 42h5v1H38zM44 42h2v1H44zM2 43h1v1H2zM4 43h3v1H4zM8 43h1v1H8zM10 43h1v1H10zM12 43h2v1H12zM15 43h1v1H15zM17 43h3v1H17zM22 43h2v1H22zM25 43h2v1H25zM29 43h1v1H29zM31 43h1v1H31zM35 43h5v1H35zM41 43h1v1H41zM45 43h2v1H45zM2 44h1v1H2zM4 44h3v1H4zM8 44h1v1H8zM10 44h14v1H10zM25 44h2v1H25zM28 44h1v1H28zM30 44h1v1H30zM33 44h6v1H33zM41 44h1v1H41zM45 44h1v1H45zM2 45h1v1H2zM8 45h1v1H8zM11 45h1v1H11zM15 45h3v1H15zM20 45h1v1H20zM22 45h3v1H22zM26 45h3v1H26zM31 45h2v1H31zM37 45h1v1H37zM40 45h1v1H40zM42 45h1v1H42zM46 45h1v1H46zM2 46h7v1H2zM10 46h1v1H10zM13 46h1v1H13zM16 46h3v1H16zM20 46h1v1H20zM25 46h1v1H25zM30 46h3v1H30zM37 46h1v1H37zM39 46h4v1H39zM44 46h1v1H44z" fill="#05070b"/></svg>